<svg width="100" height="100" viewBox="0 0 100 100" fill="none" xmlns="http://www.w3.org/2000/svg">
<circle cx="50" cy="50" r="48.5" fill="#019851" stroke="white" stroke-width="3"/>
<path d="M55.3333 57H44.6667C38.776 57 34 61.7014 34 67.5V69.25C34 69.25 39.5556 71 50 71C60.4444 71 66 69.25 66 69.25V67.5C66 61.7014 61.224 57 55.3333 57Z" fill="url(#paint0_linear)"/>
<path d="M56.5 56.5H44.5C37.873 56.5 32.5 61.873 32.5 68.5V70.5C32.5 70.5 38.75 72.5 50.5 72.5C62.25 72.5 68.5 70.5 68.5 70.5V68.5C68.5 61.873 63.127 56.5 56.5 56.5Z" stroke="white" stroke-width="2" stroke-miterlimit="10" stroke-linecap="square"/>
<path d="M60 38.75C60 44.9632 55.9706 50 51 50C46.0294 50 42 44.9632 42 38.75C42 32.5368 46.0294 30 51 30C55.9706 30 60 32.5368 60 38.75Z" fill="url(#paint1_linear)"/>
<path d="M40.5 38.5C40.5 32.977 44.977 28.5 50.5 28.5C56.023 28.5 60.5 32.977 60.5 38.5C60.5 44.023 56.023 50.5 50.5 50.5C44.977 50.5 40.5 44.023 40.5 38.5Z" stroke="white" stroke-width="2" stroke-miterlimit="10" stroke-linecap="square"/>
<defs>
<linearGradient id="paint0_linear" x1="50" y1="57" x2="50" y2="71" gradientUnits="userSpaceOnUse">
<stop stop-color="#DAEBE3"/>
<stop offset="1" stop-color="#DAEBE3" stop-opacity="0.1"/>
</linearGradient>
<linearGradient id="paint1_linear" x1="51" y1="30" x2="51" y2="50" gradientUnits="userSpaceOnUse">
<stop stop-color="#DAEBE3"/>
<stop offset="1" stop-color="#DAEBE3" stop-opacity="0"/>
</linearGradient>
</defs>
</svg>
