<svg width="65" height="24" viewBox="0 0 65 24" fill="none" xmlns="http://www.w3.org/2000/svg">
<path d="M21.595 24H28.8899C30.3875 24 31.7402 23.1429 32.4166 21.8571L43.5764 0H36.2815C34.7838 0 33.4311 0.857143 32.7548 2.14286L21.595 24Z" fill="#E01F26"/>
<path d="M9.51727 24H16.8122C18.3098 24 19.6625 23.1429 20.3389 21.8571L31.4987 0H24.1554C22.6578 0 21.3051 0.857143 20.6288 2.14286L9.51727 24Z" fill="#E01F26"/>
<path d="M36.3298 0.666665H42.7551L42.9 0.380951H36.0882C35.5085 0.380951 34.9287 0.523808 34.4456 0.809522C33.8176 1.14286 33.2862 1.66667 32.9963 2.28571L22.1747 23.4286H22.5612L33.1895 2.57143C33.8176 1.38095 35.0254 0.666665 36.3298 0.666665Z" fill="url(#paint0_linear)"/>
<path d="M32.9963 24H40.2912C41.7888 24 43.1415 23.1429 43.8179 21.8572L54.9294 0.0476379H47.6344C46.1368 0.0476379 44.7841 0.904781 44.1078 2.1905L32.9963 24Z" fill="#E01F26"/>
<path d="M47.6828 0.666665H54.1082L54.2531 0.380951H47.4413C46.8615 0.380951 46.2818 0.523808 45.7987 0.809522C45.1707 1.14286 44.6393 1.66667 44.3494 2.28571L33.5278 23.4286H33.9143L44.5426 2.57143C45.1707 1.38095 46.3784 0.666665 47.6828 0.666665Z" fill="url(#paint1_linear)"/>
<path d="M24.2521 0.666665H30.6774L30.8223 0.380951H24.0105C23.4308 0.380951 22.851 0.523808 22.3679 0.809522C21.7399 1.14286 21.2085 1.66667 20.9186 2.28571L10.097 23.4286H10.4835L21.1118 2.57143C21.7399 1.38095 22.9477 0.666665 24.2521 0.666665Z" fill="url(#paint2_linear)"/>
<path d="M14.3483 9.09526L10.8699 2.1905C10.1936 0.857162 8.84088 0.0476379 7.34324 0.0476379H0L9.46892 18.7143L14.3483 9.09526Z" fill="#E01F26"/>
<path d="M10.3386 2.57143L13.8652 9.47619L14.0585 9.09524L10.5801 2.28571C10.2419 1.61905 9.71051 1.09524 9.13078 0.809522C8.64768 0.523808 8.06795 0.380951 7.48822 0.380951H0.676392L0.821324 0.666665H7.24666C8.55105 0.666665 9.75882 1.42857 10.3386 2.57143Z" fill="url(#paint3_linear)"/>
<path d="M50.2915 14.9048L53.7699 21.8095C54.4462 23.1429 55.7989 23.9524 57.2966 23.9524H64.5915L55.1226 5.28574L50.2915 14.9048Z" fill="#E01F26"/>
<path d="M55.2191 6.47623L55.0259 6.85718L63.5286 23.6191H63.9151L55.2191 6.47623Z" fill="url(#paint4_linear)"/>
<defs>
<linearGradient id="paint0_linear" x1="32.5258" y1="-7.617" x2="32.5258" y2="11.8786" gradientUnits="userSpaceOnUse">
<stop stop-color="white"/>
<stop offset="1" stop-color="#EF402F"/>
</linearGradient>
<linearGradient id="paint1_linear" x1="43.8872" y1="-7.617" x2="43.8872" y2="11.8786" gradientUnits="userSpaceOnUse">
<stop stop-color="white"/>
<stop offset="1" stop-color="#EF402F"/>
</linearGradient>
<linearGradient id="paint2_linear" x1="20.4601" y1="-7.617" x2="20.4601" y2="11.8786" gradientUnits="userSpaceOnUse">
<stop stop-color="white"/>
<stop offset="1" stop-color="#EF402F"/>
</linearGradient>
<linearGradient id="paint3_linear" x1="7.36459" y1="-2.74948" x2="7.36459" y2="4.92586" gradientUnits="userSpaceOnUse">
<stop stop-color="white"/>
<stop offset="1" stop-color="#EF402F"/>
</linearGradient>
<linearGradient id="paint4_linear" x1="59.4713" y1="0.526466" x2="59.4713" y2="15.0401" gradientUnits="userSpaceOnUse">
<stop stop-color="white"/>
<stop offset="1" stop-color="#EF402F"/>
</linearGradient>
</defs>
</svg>
