<svg width="212" height="36" viewBox="0 0 212 36" fill="none" xmlns="http://www.w3.org/2000/svg">
<g clip-path="url(#clip0)">
<path d="M32.0149 36H42.8298C45.05 36 47.0554 34.7143 48.0581 32.7857L64.6027 0H53.7879C51.5676 0 49.5622 1.28571 48.5595 3.21429L32.0149 36Z" fill="#E01F26"/>
<path d="M14.1095 36H24.9244C27.1446 36 29.15 34.7143 30.1527 32.7857L46.6973 0H35.8108C33.5906 0 31.5852 1.28571 30.5825 3.21429L14.1095 36Z" fill="#E01F26"/>
<path d="M53.8595 1.00001H63.3851L63.6 0.571442H53.5014C52.6419 0.571442 51.7824 0.785727 51.0662 1.2143C50.1351 1.7143 49.3473 2.50001 48.9176 3.42858L32.8743 35.1429H33.4473L49.2041 3.85716C50.1351 2.07144 51.9257 1.00001 53.8595 1.00001Z" fill="url(#paint0_linear)"/>
<path d="M48.9175 36H59.7324C61.9527 36 63.9581 34.7143 64.9608 32.7857L81.4338 0.0714417H70.6189C68.3986 0.0714417 66.3932 1.35716 65.3905 3.28573L48.9175 36Z" fill="#E01F26"/>
<path d="M70.6906 1.00001H80.2162L80.4311 0.571442H70.3325C69.473 0.571442 68.6135 0.785727 67.8973 1.2143C66.9663 1.7143 66.1784 2.50001 65.7487 3.42858L49.7054 35.1429H50.2784L66.0352 3.85716C66.9662 2.07144 68.7568 1.00001 70.6906 1.00001Z" fill="url(#paint1_linear)"/>
<path d="M35.9541 1.00001H45.4797L45.6946 0.571442H35.596C34.7365 0.571442 33.877 0.785727 33.1608 1.2143C32.2297 1.7143 31.4419 2.50001 31.0122 3.42858L14.9689 35.1429H15.5419L31.2987 3.85716C32.2297 2.07144 34.0203 1.00001 35.9541 1.00001Z" fill="url(#paint2_linear)"/>
<path d="M21.2716 13.6429L16.1149 3.28573C15.1122 1.28573 13.1068 0.0714417 10.8865 0.0714417H0L14.0378 28.0714L21.2716 13.6429Z" fill="#E01F26"/>
<path d="M15.3271 3.85716L20.5555 14.2143L20.8419 13.6429L15.6852 3.42858C15.1838 2.42858 14.396 1.64287 13.5365 1.2143C12.8203 0.785727 11.9609 0.571442 11.1014 0.571442H1.00275L1.21761 1.00001H10.7433C12.6771 1.00001 14.4676 2.14287 15.3271 3.85716Z" fill="url(#paint3_linear)"/>
<path d="M74.5581 22.3572L79.7149 32.7143C80.7176 34.7143 82.723 35.9286 84.9432 35.9286H95.7581L81.7203 7.92859L74.5581 22.3572Z" fill="#E01F26"/>
<path d="M81.8635 9.71429L81.577 10.2857L94.1824 35.4286H94.7554L81.8635 9.71429Z" fill="url(#paint4_linear)"/>
<path d="M117.603 9.07142L117.03 0.142853H118.964L119.322 7L123.476 0.142853H125.481L119.895 9.07142H117.603Z" fill="#E01F26"/>
<path d="M126.913 0.214294H128.704L126.197 9.14287H124.407L126.913 0.214294Z" fill="#E01F26"/>
<path d="M130.924 7.42858H134.792L134.291 9.14287H128.632L131.139 0.214294H136.726L136.224 1.85715H132.428L131.927 3.78572H135.436L135.007 5.42858H131.497L130.924 7.42858Z" fill="#E01F26"/>
<path d="M144.747 0.214294L144.246 1.85715H141.811L139.805 9.07144H138.015L140.02 1.85715H137.585L138.086 0.214294H144.747Z" fill="#E01F26"/>
<path d="M151.766 0.214281H153.557L151.122 9.07142H149.689L147.254 3.64285L145.75 9.07142H143.959L146.466 0.142853H147.827L150.262 5.57142L151.766 0.214281Z" fill="#E01F26"/>
<path d="M159.358 9.07144L159.286 7.50001H155.634L154.631 9.07144H152.697L158.284 0.214294H160.504L161.22 9.14287H159.358V9.07144ZM156.636 5.85715H159.143L158.928 2.21429L156.636 5.85715Z" fill="#E01F26"/>
<path d="M174.327 0.214294L171.82 9.14287H170.03L171.605 3.35715L167.881 7.50001H167.666L166.234 3.35715L164.658 9.14287H162.868L165.374 0.214294H167.236L168.669 4.42858L172.465 0.214294H174.327Z" fill="#E01F26"/>
<path d="M176.476 7.42858H180.343L179.842 9.14287H174.184L176.69 0.214294H182.277L181.776 1.85715H177.98L177.478 3.78572H180.988L180.486 5.42858H176.977L176.476 7.42858Z" fill="#E01F26"/>
<path d="M181.919 7.07143L183.709 6.21429C183.781 7.14286 184.426 7.57143 185.428 7.57143C186.431 7.57143 187.004 7.28571 187.147 6.64286C187.219 6.35714 187.147 6.07143 186.932 5.92857C186.718 5.78571 186.216 5.57143 185.572 5.35714C184.855 5.14286 184.282 4.85714 183.924 4.5C183.495 4.07143 183.351 3.5 183.566 2.64286C183.781 1.85714 184.282 1.21429 184.999 0.714286C185.715 0.214286 186.503 0 187.362 0C188.866 0 189.797 0.642857 190.084 2L188.222 2.85714C188.078 2.07143 187.577 1.71429 186.789 1.71429C186.431 1.71429 186.145 1.78571 185.858 2C185.572 2.14286 185.428 2.35714 185.357 2.64286C185.285 2.92857 185.357 3.14286 185.5 3.35714C185.715 3.57143 186.145 3.71429 186.718 3.92857L187.291 4.14286C187.434 4.21429 187.577 4.21429 187.792 4.35714C188.007 4.42857 188.222 4.5 188.293 4.64286C188.437 4.71429 188.58 4.85714 188.651 5C188.795 5.14286 188.866 5.28571 188.938 5.42857C189.081 5.78571 189.081 6.21428 188.938 6.71428C188.723 7.57143 188.222 8.21429 187.434 8.64286C186.646 9.07143 185.787 9.35714 184.855 9.35714C183.924 9.35714 183.208 9.14286 182.707 8.78571C182.277 8.28571 181.991 7.71428 181.919 7.07143Z" fill="#E01F26"/>
<path d="M192.304 7.42858H196.172L195.67 9.14287H190.012L192.519 0.214294H198.105L197.676 1.85715H193.88L193.378 3.78572H196.888L196.458 5.42858H192.949L192.304 7.42858Z" fill="#E01F26"/>
<path d="M123.046 13.5714L120.539 22.5H118.749L120.324 16.7143L116.6 20.8572H116.385L114.953 16.7143L113.377 22.5H111.586L114.093 13.5714H115.955L117.388 17.7857L121.184 13.5714H123.046Z" fill="#E01F26"/>
<path d="M124.263 21.2857C123.619 20.3571 123.476 19.2857 123.834 18C124.192 16.7143 124.98 15.6429 126.126 14.7143C127.343 13.7857 128.561 13.3571 129.85 13.3571C131.139 13.3571 132.213 13.7857 132.858 14.7143C133.574 15.5714 133.718 16.7143 133.359 18C133.001 19.2857 132.213 20.3571 131.068 21.2857C129.922 22.1429 128.632 22.6429 127.343 22.6429C125.911 22.6429 124.908 22.1429 124.263 21.2857ZM130.065 20.0714C130.781 19.5 131.282 18.8571 131.497 18C131.712 17.1429 131.641 16.4286 131.211 15.9286C130.781 15.3571 130.136 15.0714 129.349 15.0714C128.561 15.0714 127.701 15.3571 126.985 15.9286C126.269 16.5 125.768 17.1429 125.553 18C125.338 18.8571 125.409 19.5714 125.839 20.0714C126.269 20.5714 126.842 20.8571 127.701 20.8571C128.561 20.9286 129.349 20.6429 130.065 20.0714Z" fill="#E01F26"/>
<path d="M142.026 13.5714L141.524 15.2857H139.018L137.012 22.5H135.222L137.227 15.2857H134.792L135.293 13.5714H142.026Z" fill="#E01F26"/>
<path d="M141.954 21.2857C141.309 20.3571 141.166 19.2857 141.524 18C141.882 16.7143 142.67 15.6429 143.816 14.7143C145.034 13.7857 146.251 13.3571 147.541 13.3571C148.83 13.3571 149.904 13.7857 150.549 14.7143C151.265 15.5714 151.408 16.7143 151.05 18C150.692 19.2857 149.904 20.3571 148.758 21.2857C147.612 22.1429 146.323 22.6429 145.034 22.6429C143.673 22.6429 142.67 22.1429 141.954 21.2857ZM147.755 20.0714C148.472 19.5 148.973 18.8571 149.188 18C149.403 17.1429 149.331 16.4286 148.901 15.9286C148.472 15.3571 147.827 15.0714 147.039 15.0714C146.18 15.0714 145.392 15.3571 144.676 15.9286C143.959 16.5 143.458 17.1429 143.243 18C143.028 18.8571 143.1 19.5714 143.53 20.0714C143.959 20.5714 144.532 20.8571 145.392 20.8571C146.323 20.9286 147.039 20.6429 147.755 20.0714Z" fill="#E01F26"/>
<path d="M156.78 22.4286L155.777 19.3571H154.416L153.557 22.4286H151.766L154.273 13.5H157.926C158.785 13.5 159.43 13.7857 159.859 14.3571C160.289 14.9286 160.432 15.6429 160.146 16.4286C160.003 17 159.716 17.5 159.215 18C158.785 18.5 158.212 18.7857 157.639 19.0714L158.713 22.4286H156.78ZM155.562 15.2143L154.846 17.8571H156.708C157.066 17.8571 157.353 17.7143 157.711 17.4286C157.997 17.1429 158.212 16.8571 158.355 16.5C158.427 16.1429 158.427 15.8571 158.212 15.5714C158.069 15.2857 157.782 15.2143 157.424 15.2143H155.562Z" fill="#E01F26"/>
<path d="M160.361 20.4286L162.151 19.5714C162.223 20.5 162.868 20.9286 163.87 20.9286C164.873 20.9286 165.446 20.6429 165.589 20C165.661 19.7143 165.589 19.4286 165.374 19.2857C165.159 19.1429 164.658 18.9286 164.013 18.7143C163.297 18.5 162.724 18.2143 162.366 17.8571C161.936 17.4286 161.793 16.8571 162.008 16C162.223 15.2143 162.724 14.5714 163.441 14.0714C164.157 13.5714 164.945 13.3571 165.804 13.3571C167.308 13.3571 168.239 14 168.526 15.3571L166.735 16.2143C166.592 15.4286 166.091 15.0714 165.303 15.0714C164.945 15.0714 164.586 15.1429 164.372 15.3571C164.157 15.5714 163.942 15.7143 163.87 16C163.799 16.2857 163.87 16.5 164.013 16.7143C164.228 16.8571 164.658 17.0714 165.231 17.2857L165.804 17.5C165.876 17.5714 166.091 17.5714 166.305 17.7143C166.52 17.7857 166.735 17.8571 166.807 18C166.95 18.0714 167.093 18.2143 167.165 18.3571C167.308 18.5 167.38 18.6429 167.451 18.7857C167.595 19.1429 167.595 19.5714 167.451 20.0714C167.236 20.9286 166.735 21.5714 165.947 22C165.159 22.4286 164.3 22.7143 163.369 22.7143C162.438 22.7143 161.722 22.5 161.22 22.1429C160.719 21.6429 160.432 21.1429 160.361 20.4286Z" fill="#E01F26"/>
<path d="M174.399 13.5714C175.258 13.5714 175.903 13.8572 176.404 14.4286C176.834 15 176.977 15.7143 176.691 16.5714C176.476 17.4286 175.974 18.1429 175.187 18.7143C174.399 19.2857 173.611 19.5714 172.751 19.5714H171.104L170.316 22.5H168.526L171.032 13.5714H174.399ZM173.181 17.8572C173.539 17.8572 173.897 17.7143 174.255 17.4286C174.542 17.1429 174.828 16.8572 174.9 16.5C175.043 16.0714 174.972 15.7857 174.757 15.5C174.614 15.2143 174.255 15.1429 173.897 15.1429H172.25L171.534 17.8572H173.181Z" fill="#E01F26"/>
<path d="M178.123 21.2857C177.478 20.3571 177.335 19.2857 177.693 18C178.051 16.7143 178.839 15.6429 179.985 14.7143C181.203 13.7857 182.42 13.3571 183.709 13.3571C184.999 13.3571 186.073 13.7857 186.718 14.7143C187.434 15.5714 187.577 16.7143 187.219 18C186.861 19.2857 186.073 20.3571 184.927 21.2857C183.781 22.1429 182.492 22.6429 181.203 22.6429C179.77 22.6429 178.768 22.1429 178.123 21.2857ZM183.924 20.0714C184.641 19.5 185.142 18.8571 185.357 18C185.572 17.1429 185.5 16.4286 185.07 15.9286C184.641 15.3571 183.996 15.0714 183.208 15.0714C182.349 15.0714 181.561 15.3571 180.845 15.9286C180.128 16.5 179.627 17.1429 179.412 18C179.197 18.8571 179.269 19.5714 179.699 20.0714C180.128 20.5714 180.701 20.8571 181.561 20.8571C182.42 20.9286 183.208 20.6429 183.924 20.0714Z" fill="#E01F26"/>
<path d="M192.877 22.4286L191.874 19.3571H190.514L189.654 22.4286H187.863L190.37 13.5H194.023C194.882 13.5 195.527 13.7857 195.957 14.3571C196.386 14.9286 196.53 15.6429 196.243 16.4286C196.1 17 195.814 17.5 195.312 18C194.882 18.5 194.309 18.7857 193.736 19.0714L194.811 22.4286H192.877ZM191.659 15.2143L190.943 17.8571H192.805C193.164 17.8571 193.45 17.7143 193.808 17.4286C194.095 17.1429 194.309 16.8571 194.453 16.5C194.524 16.1429 194.524 15.8571 194.309 15.5714C194.166 15.2857 193.88 15.2143 193.522 15.2143H191.659Z" fill="#E01F26"/>
<path d="M204.909 13.5714L204.408 15.2857H201.973L199.968 22.5H198.177L200.182 15.2857H197.676L198.177 13.5714H204.909Z" fill="#E01F26"/>
<path d="M203.907 20.4286L205.697 19.5714C205.769 20.5 206.413 20.9286 207.416 20.9286C208.419 20.9286 208.992 20.6429 209.135 20C209.207 19.7143 209.135 19.4286 208.92 19.2857C208.705 19.1429 208.204 18.9286 207.559 18.7143C206.843 18.5 206.27 18.2143 205.912 17.8571C205.482 17.4286 205.339 16.8571 205.554 16C205.769 15.2143 206.27 14.5714 206.986 14.0714C207.703 13.5714 208.49 13.3571 209.35 13.3571C210.854 13.3571 211.785 14 212.072 15.3571L210.281 16.2143C210.138 15.4286 209.636 15.0714 208.849 15.0714C208.491 15.0714 208.132 15.1429 207.918 15.3571C207.703 15.5714 207.488 15.7143 207.416 16C207.345 16.2857 207.416 16.5 207.559 16.7143C207.774 16.8571 208.204 17.0714 208.777 17.2857L209.35 17.5C209.422 17.5714 209.636 17.5714 209.851 17.7143C210.066 17.7857 210.281 17.8571 210.353 18C210.496 18.0714 210.639 18.2143 210.711 18.3571C210.854 18.5 210.926 18.6429 210.997 18.7857C211.141 19.1429 211.141 19.5714 210.997 20.0714C210.782 20.9286 210.281 21.5714 209.493 22C208.777 22.5 207.846 22.7143 206.915 22.7143C205.984 22.7143 205.268 22.5 204.766 22.1429C204.265 21.6429 203.978 21.1429 203.907 20.4286Z" fill="#E01F26"/>
<path d="M113.807 35.7857L113.735 34.2143H110.082L109.08 35.7857H107.146L112.804 26.8571H115.024L115.741 35.7857H113.807ZM111.085 32.5714H113.592L113.377 28.9286L111.085 32.5714Z" fill="#E01F26"/>
<path d="M117.173 33.7857L118.964 32.9286C119.035 33.8571 119.68 34.2857 120.682 34.2857C121.685 34.2857 122.258 34 122.401 33.3571C122.473 33.0714 122.401 32.7857 122.186 32.6429C121.972 32.4286 121.47 32.2857 120.826 32.0714C120.109 31.8572 119.536 31.5714 119.178 31.2143C118.749 30.7857 118.605 30.2143 118.82 29.3571C119.035 28.5714 119.536 27.9286 120.253 27.4286C120.969 26.9286 121.757 26.7143 122.616 26.7143C124.12 26.7143 125.051 27.3572 125.338 28.7143L123.547 29.5714C123.404 28.7857 122.903 28.4286 122.115 28.4286C121.757 28.4286 121.47 28.5 121.184 28.7143C120.897 28.8572 120.754 29.0714 120.682 29.3571C120.611 29.6429 120.682 29.8571 120.826 30.0714C121.041 30.2143 121.47 30.4286 122.043 30.6429L122.616 30.8572C122.688 30.9286 122.903 30.9286 123.118 31.0714C123.332 31.1429 123.547 31.2857 123.619 31.3572C123.762 31.4286 123.905 31.5714 123.977 31.7143C124.12 31.8572 124.192 32 124.264 32.1429C124.407 32.5 124.407 32.9286 124.264 33.4286C124.049 34.2857 123.547 34.9286 122.759 35.3571C122.043 35.8571 121.112 36.0714 120.181 36.0714C119.25 36.0714 118.534 35.8571 118.032 35.5C117.531 35 117.245 34.5 117.173 33.7857Z" fill="#E01F26"/>
<path d="M125.195 33.7857L126.985 32.9286C127.057 33.8571 127.701 34.2857 128.704 34.2857C129.707 34.2857 130.28 34 130.423 33.3571C130.495 33.0714 130.423 32.7857 130.208 32.6429C129.993 32.4286 129.492 32.2857 128.847 32.0714C128.131 31.8572 127.558 31.5714 127.2 31.2143C126.77 30.7857 126.627 30.2143 126.842 29.3571C127.057 28.5714 127.558 27.9286 128.274 27.4286C128.991 26.9286 129.778 26.7143 130.638 26.7143C132.142 26.7143 133.073 27.3572 133.359 28.7143L131.569 29.5714C131.426 28.7857 130.924 28.4286 130.136 28.4286C129.778 28.4286 129.492 28.5 129.205 28.7143C128.919 28.8572 128.776 29.0714 128.704 29.3571C128.632 29.6429 128.704 29.8571 128.847 30.0714C129.062 30.2143 129.492 30.4286 130.065 30.6429L130.638 30.8572C130.709 30.9286 130.924 30.9286 131.139 31.0714C131.354 31.1429 131.569 31.2857 131.641 31.3572C131.784 31.4286 131.927 31.5714 131.999 31.7143C132.142 31.8572 132.213 32 132.285 32.1429C132.428 32.5 132.428 32.9286 132.285 33.4286C132.07 34.2857 131.569 34.9286 130.781 35.3571C130.065 35.8571 129.134 36.0714 128.203 36.0714C127.272 36.0714 126.555 35.8571 126.054 35.5C125.553 35 125.266 34.5 125.195 33.7857Z" fill="#E01F26"/>
<path d="M134.649 34.6429C134.004 33.7143 133.861 32.6429 134.219 31.3572C134.577 30.0714 135.365 29 136.511 28.0714C137.728 27.1429 138.946 26.7143 140.235 26.7143C141.524 26.7143 142.599 27.1429 143.243 28.0714C143.959 28.9286 144.103 30.0714 143.745 31.3572C143.386 32.6429 142.599 33.7143 141.453 34.6429C140.307 35.5 139.018 36 137.728 36C136.296 36 135.293 35.5714 134.649 34.6429ZM140.45 33.4286C141.166 32.8571 141.668 32.2143 141.882 31.3572C142.097 30.5 142.026 29.7857 141.596 29.2857C141.166 28.7143 140.522 28.4286 139.734 28.4286C138.946 28.4286 138.086 28.7143 137.37 29.2857C136.654 29.8572 136.153 30.5 135.938 31.3572C135.723 32.2143 135.795 32.9286 136.224 33.4286C136.654 33.9286 137.227 34.2143 138.086 34.2143C138.946 34.2857 139.734 34 140.45 33.4286Z" fill="#E01F26"/>
<path d="M145.177 31.3572C145.535 30 146.323 28.9286 147.469 28.0714C148.615 27.2143 149.904 26.7143 151.265 26.7143C152.124 26.7143 152.841 26.9286 153.414 27.2857C153.987 27.6429 154.416 28.1429 154.631 28.7857L152.841 29.6429C152.626 28.7857 151.91 28.3572 150.835 28.3572C149.976 28.3572 149.116 28.6429 148.472 29.1429C147.755 29.7143 147.326 30.4286 147.039 31.2857C146.824 32.1429 146.896 32.8572 147.254 33.3572C147.684 33.9286 148.328 34.1429 149.188 34.1429C149.689 34.1429 150.191 34 150.692 33.7857C151.193 33.5714 151.551 33.2857 151.91 32.8572L153.199 33.7143C152.626 34.3572 151.91 34.8572 151.122 35.2143C150.334 35.5714 149.474 35.7857 148.687 35.7857C147.326 35.7857 146.323 35.3572 145.607 34.4286C144.962 33.7857 144.819 32.6429 145.177 31.3572Z" fill="#E01F26"/>
<path d="M156.923 26.9286H158.714L156.207 35.8571H154.416L156.923 26.9286Z" fill="#E01F26"/>
<path d="M164.515 35.7857L164.443 34.2143H160.79L159.788 35.7857H157.854L163.512 26.8571H165.732L166.449 35.7857H164.515ZM161.793 32.5714H164.3L164.085 28.9286L161.793 32.5714Z" fill="#E01F26"/>
<path d="M175.903 26.9286L175.473 28.5714H172.966L170.961 35.7857H169.17L171.176 28.5714H168.741L169.242 26.8571H175.903V26.9286Z" fill="#E01F26"/>
<path d="M177.55 26.9286H179.341L176.905 35.7857H175.115L177.55 26.9286Z" fill="#E01F26"/>
<path d="M180.558 34.6429C179.914 33.7143 179.77 32.6429 180.128 31.3572C180.486 30.0714 181.274 29 182.42 28.0714C183.638 27.1429 184.855 26.7143 186.145 26.7143C187.434 26.7143 188.508 27.1429 189.153 28.0714C189.869 28.9286 190.012 30.0714 189.654 31.3572C189.296 32.6429 188.508 33.7143 187.362 34.6429C186.216 35.5 184.927 36 183.638 36C182.205 36 181.203 35.5714 180.558 34.6429ZM186.359 33.4286C187.076 32.8571 187.577 32.2143 187.792 31.3572C188.007 30.5 187.935 29.7857 187.505 29.2857C187.076 28.7143 186.431 28.4286 185.643 28.4286C184.855 28.4286 184.068 28.7143 183.351 29.2857C182.635 29.8572 182.134 30.5 181.919 31.3572C181.704 32.2143 181.776 32.9286 182.205 33.4286C182.635 33.9286 183.208 34.2143 184.068 34.2143C184.927 34.2857 185.643 34 186.359 33.4286Z" fill="#E01F26"/>
<path d="M198.105 26.9286H199.896L197.389 35.8571H196.028L193.593 30.4286L192.089 35.8571H190.299L192.805 26.9286H194.166L196.601 32.3571L198.105 26.9286Z" fill="#E01F26"/>
</g>
<defs>
<linearGradient id="paint0_linear" x1="48.22" y1="-11.4255" x2="48.22" y2="17.8179" gradientUnits="userSpaceOnUse">
<stop stop-color="white"/>
<stop offset="1" stop-color="#EF402F"/>
</linearGradient>
<linearGradient id="paint1_linear" x1="65.0635" y1="-11.4255" x2="65.0635" y2="17.8179" gradientUnits="userSpaceOnUse">
<stop stop-color="white"/>
<stop offset="1" stop-color="#EF402F"/>
</linearGradient>
<linearGradient id="paint2_linear" x1="30.3324" y1="-11.4255" x2="30.3324" y2="17.8179" gradientUnits="userSpaceOnUse">
<stop stop-color="white"/>
<stop offset="1" stop-color="#EF402F"/>
</linearGradient>
<linearGradient id="paint3_linear" x1="10.9181" y1="-4.1242" x2="10.9181" y2="7.3888" gradientUnits="userSpaceOnUse">
<stop stop-color="white"/>
<stop offset="1" stop-color="#EF402F"/>
</linearGradient>
<linearGradient id="paint4_linear" x1="88.1674" y1="0.789653" x2="88.1674" y2="22.5601" gradientUnits="userSpaceOnUse">
<stop stop-color="white"/>
<stop offset="1" stop-color="#EF402F"/>
</linearGradient>
<clipPath id="clip0">
<rect width="212" height="36" fill="white"/>
</clipPath>
</defs>
</svg>
