<?xml version="1.0" standalone="no"?>
<!DOCTYPE svg PUBLIC "-//W3C//DTD SVG 20010904//EN"
 "http://www.w3.org/TR/2001/REC-SVG-20010904/DTD/svg10.dtd">
<svg version="1.0" xmlns="http://www.w3.org/2000/svg"
 width="1024.000000pt" height="1024.000000pt" viewBox="0 0 1024.000000 1024.000000"
 preserveAspectRatio="xMidYMid meet">
<metadata>
Created by potrace 1.15, written by Peter Selinger 2001-2017
</metadata>
<g transform="translate(0.000000,1024.000000) scale(0.100000,-0.100000)"
fill="#3a599a" stroke="none">
<path d="M582 10050 c-104 -27 -167 -64 -247 -145 -82 -82 -118 -144 -145
-251 -20 -76 -20 -126 -20 -4528 0 -3824 2 -4461 15 -4519 41 -194 200 -362
390 -412 52 -13 337 -15 2467 -15 l2408 0 0 1910 0 1910 -642 2 -643 3 -3 748
-2 747 645 0 645 0 0 583 c0 320 5 643 10 717 31 413 132 729 327 1025 89 134
290 335 428 427 247 165 554 271 887 307 123 14 574 14 839 1 224 -11 569 -39
581 -46 4 -3 8 -304 8 -670 l0 -664 -377 0 c-579 0 -739 -18 -887 -98 -114
-62 -195 -174 -239 -331 -20 -73 -21 -100 -25 -663 l-3 -588 735 0 736 0 0
-22 c0 -25 -178 -1421 -185 -1455 l-5 -23 -640 0 -640 0 0 -1910 0 -1910 1303
0 c1415 0 1345 -2 1466 56 74 36 199 161 235 235 60 125 56 -241 56 4649 0
3944 -2 4493 -15 4543 -51 198 -212 350 -415 393 -55 11 -771 14 -4520 13
-4356 0 -4457 -1 -4528 -19z"/>
</g>
</svg>
