<svg width="24" height="24" viewBox="0 0 24 24" fill="none" xmlns="http://www.w3.org/2000/svg">
<path fill-rule="evenodd" clip-rule="evenodd" d="M10.0004 2C5.58153 2 2 5.58153 2 10.0004C2 14.4194 5.58153 18.0009 10.0004 18.0009C11.8494 18.0009 13.5518 17.3738 14.9065 16.3208L16.8849 18.2991C16.8639 18.7081 17.0039 19.1252 17.3169 19.4382L19.4382 21.5595C20.0243 22.1456 20.9745 22.1456 21.5595 21.5595C22.1456 20.9745 22.1456 20.0243 21.5595 19.4382L19.4382 17.3169C19.1252 17.0039 18.7081 16.8639 18.2991 16.8849L16.3208 14.9065C17.3738 13.5518 18.0009 11.8494 18.0009 10.0004C18.0009 5.58153 14.4194 2 10.0004 2ZM4.00059 10.0004C4.00059 6.68681 6.68681 4.00059 10.0004 4.00059C13.3141 4.00059 16.0003 6.68681 16.0003 10.0004C16.0003 13.3141 13.3141 16.0003 10.0004 16.0003C6.68681 16.0003 4.00059 13.3141 4.00059 10.0004Z" fill="#333333"/>
</svg>
