<?xml version="1.0" standalone="no"?>
<!DOCTYPE svg PUBLIC "-//W3C//DTD SVG 20010904//EN"
 "http://www.w3.org/TR/2001/REC-SVG-20010904/DTD/svg10.dtd">
<svg version="1.0" xmlns="http://www.w3.org/2000/svg"
 width="400.000000pt" height="400.000000pt" viewBox="0 0 400.000000 400.000000"
 preserveAspectRatio="xMidYMid meet">
<metadata>
Created by potrace 1.15, written by Peter Selinger 2001-2017
</metadata>
<g transform="translate(0.000000,400.000000) scale(0.100000,-0.100000)"
fill="#1da1f2" stroke="none">
<path d="M850 3556 c-200 -62 -346 -209 -406 -410 l-24 -80 0 -1066 0 -1066
24 -80 c61 -203 207 -349 410 -410 l80 -24 1066 0 1066 0 80 24 c203 61 349
207 410 410 l24 80 0 1066 0 1066 -24 80 c-61 203 -207 349 -410 410 l-80 24
-1070 -1 -1071 0 -75 -23z m1706 -871 c27 -14 64 -39 82 -55 19 -17 39 -30 46
-30 17 0 153 48 188 66 25 13 27 13 21 -3 -11 -32 -47 -77 -97 -125 -28 -26
-48 -49 -46 -51 6 -6 127 17 163 32 25 10 27 9 18 -8 -6 -10 -42 -48 -81 -84
-62 -58 -70 -69 -70 -102 0 -70 -32 -261 -56 -335 -40 -124 -83 -213 -149
-310 -91 -136 -242 -271 -385 -346 -161 -85 -298 -116 -505 -116 -199 0 -305
23 -474 106 l-65 31 70 6 c164 14 339 75 423 146 l34 29 -68 17 c-125 31 -210
92 -262 189 l-23 43 75 5 c41 3 77 9 81 12 9 10 -5 28 -22 28 -70 0 -214 127
-252 223 -22 58 -29 117 -13 117 5 0 25 -7 44 -15 33 -14 117 -21 117 -10 0 2
-22 25 -50 51 -73 69 -114 157 -118 260 -3 67 0 90 18 133 l23 52 52 -53 c125
-129 267 -220 430 -277 75 -27 236 -61 285 -61 l37 0 -5 73 c-7 116 32 215
121 300 77 74 149 98 278 92 68 -3 95 -9 135 -30z"/>
</g>
</svg>
